<svg width="140" height="96" viewBox="0 0 140 96" fill="none" xmlns="http://www.w3.org/2000/svg">
<rect width="140" height="96" fill="white"/>
<rect width="140" height="96" fill="#0A0A0A"/>
<rect x="19" y="9" width="101" height="78" fill="white"/>
<path d="M80.04 72L61.8 49.024L78.568 27.456H86.056L68.776 48.576V48.96L87.848 72H80.04ZM55.528 72L55.72 49.344L55.528 27.456H61.608V72H55.528Z" fill="black"/>
<rect x="5" y="9" width="9" height="6" rx="1" fill="white"/>
<rect x="5" y="33" width="9" height="6" rx="1" fill="white"/>
<rect x="5" y="57" width="9" height="6" rx="1" fill="white"/>
<rect x="5" y="81" width="9" height="6" rx="1" fill="white"/>
<path d="M126 10C126 9.44772 126.448 9 127 9H134C134.552 9 135 9.44772 135 10V14C135 14.5523 134.552 15 134 15H127C126.448 15 126 14.5523 126 14V10Z" fill="white"/>
<rect x="126" y="33" width="9" height="6" rx="1" fill="white"/>
<rect x="126" y="57" width="9" height="6" rx="1" fill="white"/>
<path d="M126 82C126 81.4477 126.448 81 127 81H134C134.552 81 135 81.4477 135 82V86C135 86.5523 134.552 87 134 87H127C126.448 87 126 86.5523 126 86V82Z" fill="white"/>
</svg>
