<svg width="158" height="176" viewBox="0 0 158 176" fill="none" xmlns="http://www.w3.org/2000/svg">
<g filter="url(#filter0_d_96_103)">
<g clip-path="url(#clip0_96_103)">
<rect x="4" width="150" height="168" rx="15" fill="white"/>
<path d="M80.2 82.4472C89.29 82.4472 96.6572 74.5117 96.6572 64.7236C96.6572 54.9355 89.29 47 80.2 47C71.11 47 63.7429 54.9355 63.7429 64.7236C63.7429 74.5117 71.11 82.4472 80.2 82.4472ZM86.7186 89.0935H73.6815C61.3785 89.0935 51.4 99.8384 51.4 113.09C51.4 115.74 53.3955 117.89 55.8563 117.89H104.546C107.007 117.894 109 115.748 109 113.09C109 99.8384 99.0229 89.0935 86.7186 89.0935Z" fill="#E5E5E5"/>
<path d="M27.312 141.56V138.824H27.984C28.216 138.456 28.38 138.036 28.476 137.564C28.58 137.092 28.632 136.504 28.632 135.8V134.132H33.204V138.824H34.164V141.56H32.892V140H28.584V141.56H27.312ZM29.34 138.824H31.8V135.284H29.916V136.148C29.916 136.652 29.864 137.14 29.76 137.612C29.664 138.084 29.524 138.488 29.34 138.824ZM37.958 140.12C37.35 140.12 36.822 139.996 36.374 139.748C35.926 139.5 35.578 139.148 35.33 138.692C35.082 138.228 34.958 137.684 34.958 137.06C34.958 136.436 35.082 135.896 35.33 135.44C35.578 134.984 35.926 134.632 36.374 134.384C36.822 134.136 37.35 134.012 37.958 134.012C38.566 134.012 39.094 134.136 39.542 134.384C39.99 134.632 40.338 134.984 40.586 135.44C40.834 135.896 40.958 136.436 40.958 137.06C40.958 137.684 40.834 138.228 40.586 138.692C40.338 139.148 39.99 139.5 39.542 139.748C39.094 139.996 38.566 140.12 37.958 140.12ZM37.958 138.98C38.406 138.98 38.766 138.82 39.038 138.5C39.31 138.172 39.446 137.692 39.446 137.06C39.446 136.42 39.31 135.944 39.038 135.632C38.766 135.312 38.406 135.152 37.958 135.152C37.51 135.152 37.15 135.312 36.878 135.632C36.606 135.944 36.47 136.42 36.47 137.06C36.47 137.692 36.606 138.172 36.878 138.5C37.15 138.82 37.51 138.98 37.958 138.98ZM45.0961 140.12C44.1521 140.12 43.4041 139.832 42.8521 139.256C42.3081 138.68 42.0361 137.832 42.0361 136.712V135.836C42.0361 134.652 42.3001 133.752 42.8281 133.136C43.3561 132.512 44.1401 132.076 45.1801 131.828L47.2321 131.324L47.6761 132.512L45.2881 133.076C44.6881 133.22 44.2321 133.488 43.9201 133.88C43.6081 134.264 43.4521 134.752 43.4521 135.344V135.404C43.6281 135.044 43.8881 134.752 44.2321 134.528C44.5841 134.304 45.0121 134.192 45.5161 134.192C46.0041 134.192 46.4361 134.312 46.8121 134.552C47.1961 134.784 47.4961 135.116 47.7121 135.548C47.9281 135.98 48.0361 136.496 48.0361 137.096C48.0361 137.712 47.9121 138.248 47.6641 138.704C47.4241 139.152 47.0841 139.5 46.6441 139.748C46.2041 139.996 45.6881 140.12 45.0961 140.12ZM45.0361 138.98C45.5081 138.98 45.8721 138.824 46.1281 138.512C46.3921 138.2 46.5241 137.748 46.5241 137.156C46.5241 136.572 46.3921 136.124 46.1281 135.812C45.8721 135.492 45.5081 135.332 45.0361 135.332C44.5721 135.332 44.2081 135.488 43.9441 135.8C43.6801 136.112 43.5481 136.544 43.5481 137.096C43.5481 137.712 43.6761 138.18 43.9321 138.5C44.1961 138.82 44.5641 138.98 45.0361 138.98ZM51.3702 140.12C50.9462 140.12 50.5662 140.04 50.2302 139.88C49.9022 139.712 49.6422 139.488 49.4502 139.208C49.2662 138.928 49.1742 138.612 49.1742 138.26C49.1742 137.828 49.2862 137.488 49.5102 137.24C49.7342 136.984 50.0982 136.8 50.6022 136.688C51.1062 136.576 51.7822 136.52 52.6302 136.52H53.0502V136.268C53.0502 135.868 52.9622 135.58 52.7862 135.404C52.6102 135.228 52.3142 135.14 51.8982 135.14C51.5702 135.14 51.2342 135.192 50.8902 135.296C50.5462 135.392 50.1982 135.544 49.8462 135.752L49.4142 134.732C49.6222 134.588 49.8662 134.464 50.1462 134.36C50.4342 134.248 50.7342 134.164 51.0462 134.108C51.3662 134.044 51.6662 134.012 51.9462 134.012C52.8022 134.012 53.4382 134.212 53.8542 134.612C54.2702 135.004 54.4782 135.616 54.4782 136.448V140H53.0742V139.064C52.9382 139.392 52.7222 139.652 52.4262 139.844C52.1302 140.028 51.7782 140.12 51.3702 140.12ZM51.6822 139.088C52.0742 139.088 52.3982 138.952 52.6542 138.68C52.9182 138.408 53.0502 138.064 53.0502 137.648V137.384H52.6422C51.8902 137.384 51.3662 137.444 51.0702 137.564C50.7822 137.676 50.6382 137.884 50.6382 138.188C50.6382 138.452 50.7302 138.668 50.9142 138.836C51.0982 139.004 51.3542 139.088 51.6822 139.088ZM56.1528 140V134.132H59.3208C60.0808 134.132 60.6248 134.268 60.9528 134.54C61.2888 134.804 61.4568 135.18 61.4568 135.668C61.4568 135.972 61.3728 136.236 61.2048 136.46C61.0368 136.684 60.8048 136.848 60.5088 136.952C60.8928 137.04 61.1808 137.208 61.3728 137.456C61.5648 137.704 61.6608 138.004 61.6608 138.356C61.6608 138.86 61.4688 139.26 61.0848 139.556C60.7008 139.852 60.1448 140 59.4168 140H56.1528ZM57.5448 136.544H59.1768C59.4648 136.544 59.6888 136.48 59.8488 136.352C60.0088 136.216 60.0888 136.028 60.0888 135.788C60.0888 135.548 60.0088 135.368 59.8488 135.248C59.6888 135.12 59.4648 135.056 59.1768 135.056H57.5448V136.544ZM57.5448 139.076H59.2848C59.9568 139.076 60.2928 138.808 60.2928 138.272C60.2928 137.736 59.9568 137.468 59.2848 137.468H57.5448V139.076ZM62.9731 140V134.132H64.3291V138.044L67.2691 134.132H68.5171V140H67.1611V136.088L64.2211 140H62.9731ZM71.4513 140V135.308H69.4473V134.132H74.9673V135.308H72.9513V140H71.4513ZM75.8872 140V134.132H77.3872V136.076H78.9352C79.7112 136.076 80.2952 136.24 80.6872 136.568C81.0872 136.896 81.2872 137.376 81.2872 138.008C81.2872 138.608 81.0752 139.092 80.6512 139.46C80.2352 139.82 79.6632 140 78.9352 140H75.8872ZM77.3872 139.016H78.7072C79.0832 139.016 79.3752 138.936 79.5832 138.776C79.7912 138.608 79.8952 138.356 79.8952 138.02C79.8952 137.692 79.7912 137.452 79.5832 137.3C79.3752 137.14 79.0832 137.06 78.7072 137.06H77.3872V139.016ZM89.1863 142.16V139.184C88.8823 139.808 88.3663 140.12 87.6383 140.12C87.2063 140.12 86.8263 139.996 86.4983 139.748C86.1703 139.492 85.9103 139.136 85.7183 138.68C85.5343 138.216 85.4423 137.676 85.4423 137.06C85.4423 136.436 85.5343 135.896 85.7183 135.44C85.9103 134.984 86.1703 134.632 86.4983 134.384C86.8263 134.136 87.2063 134.012 87.6383 134.012C87.9983 134.012 88.3103 134.096 88.5743 134.264C88.8383 134.424 89.0423 134.652 89.1863 134.948V131.54H90.6863V134.924C90.8303 134.636 91.0343 134.412 91.2983 134.252C91.5703 134.092 91.8783 134.012 92.2223 134.012C92.6543 134.012 93.0343 134.136 93.3623 134.384C93.6983 134.632 93.9583 134.984 94.1423 135.44C94.3263 135.896 94.4183 136.436 94.4183 137.06C94.4183 137.676 94.3263 138.216 94.1423 138.68C93.9583 139.136 93.7023 139.492 93.3743 139.748C93.0463 139.996 92.6623 140.12 92.2223 140.12C91.5183 140.12 91.0063 139.812 90.6863 139.196V142.16H89.1863ZM88.0823 138.992C88.4263 138.992 88.6983 138.836 88.8983 138.524C89.1063 138.204 89.2103 137.716 89.2103 137.06C89.2103 136.412 89.1063 135.932 88.8983 135.62C88.6903 135.3 88.4183 135.14 88.0823 135.14C87.7383 135.14 87.4623 135.3 87.2543 135.62C87.0463 135.932 86.9423 136.412 86.9423 137.06C86.9423 137.716 87.0463 138.204 87.2543 138.524C87.4623 138.836 87.7383 138.992 88.0823 138.992ZM91.7783 138.992C92.1303 138.992 92.4063 138.836 92.6063 138.524C92.8143 138.204 92.9183 137.716 92.9183 137.06C92.9183 136.412 92.8143 135.932 92.6063 135.62C92.3983 135.3 92.1223 135.14 91.7783 135.14C91.4343 135.14 91.1623 135.3 90.9623 135.62C90.7623 135.932 90.6623 136.412 90.6623 137.06C90.6623 137.716 90.7623 138.204 90.9623 138.524C91.1623 138.836 91.4343 138.992 91.7783 138.992ZM98.497 140.12C97.889 140.12 97.361 139.996 96.913 139.748C96.465 139.5 96.117 139.148 95.869 138.692C95.621 138.228 95.497 137.684 95.497 137.06C95.497 136.436 95.621 135.896 95.869 135.44C96.117 134.984 96.465 134.632 96.913 134.384C97.361 134.136 97.889 134.012 98.497 134.012C99.105 134.012 99.633 134.136 100.081 134.384C100.529 134.632 100.877 134.984 101.125 135.44C101.373 135.896 101.497 136.436 101.497 137.06C101.497 137.684 101.373 138.228 101.125 138.692C100.877 139.148 100.529 139.5 100.081 139.748C99.633 139.996 99.105 140.12 98.497 140.12ZM98.497 138.98C98.945 138.98 99.305 138.82 99.577 138.5C99.849 138.172 99.985 137.692 99.985 137.06C99.985 136.42 99.849 135.944 99.577 135.632C99.305 135.312 98.945 135.152 98.497 135.152C98.049 135.152 97.689 135.312 97.417 135.632C97.145 135.944 97.009 136.42 97.009 137.06C97.009 137.692 97.145 138.172 97.417 138.5C97.689 138.82 98.049 138.98 98.497 138.98ZM104.123 140V135.308H102.119V134.132H107.639V135.308H105.623V140H104.123ZM111.188 140.12C110.58 140.12 110.052 139.996 109.604 139.748C109.156 139.5 108.808 139.148 108.56 138.692C108.312 138.228 108.188 137.684 108.188 137.06C108.188 136.436 108.312 135.896 108.56 135.44C108.808 134.984 109.156 134.632 109.604 134.384C110.052 134.136 110.58 134.012 111.188 134.012C111.796 134.012 112.324 134.136 112.772 134.384C113.22 134.632 113.568 134.984 113.816 135.44C114.064 135.896 114.188 136.436 114.188 137.06C114.188 137.684 114.064 138.228 113.816 138.692C113.568 139.148 113.22 139.5 112.772 139.748C112.324 139.996 111.796 140.12 111.188 140.12ZM111.188 138.98C111.636 138.98 111.996 138.82 112.268 138.5C112.54 138.172 112.676 137.692 112.676 137.06C112.676 136.42 112.54 135.944 112.268 135.632C111.996 135.312 111.636 135.152 111.188 135.152C110.74 135.152 110.38 135.312 110.108 135.632C109.836 135.944 109.7 136.42 109.7 137.06C109.7 137.692 109.836 138.172 110.108 138.5C110.38 138.82 110.74 138.98 111.188 138.98Z" fill="#E5E5E5"/>
<path d="M136.453 135.091C136.453 135.524 135.838 135.874 135.08 135.874H128.899V139.399C128.899 139.832 128.283 140.182 127.525 140.182C126.766 140.182 126.151 139.832 126.151 139.399V135.874H119.97C119.211 135.874 118.596 135.524 118.596 135.091C118.596 134.658 119.211 134.308 119.97 134.308H126.151V130.783C126.151 130.35 126.766 130 127.525 130C128.283 130 128.899 130.35 128.899 130.783V134.308H135.08C135.84 134.308 136.453 134.658 136.453 135.091Z" fill="#E5E5E5"/>
</g>
</g>
<defs>
<filter id="filter0_d_96_103" x="0" y="0" width="158" height="176" filterUnits="userSpaceOnUse" color-interpolation-filters="sRGB">
<feFlood flood-opacity="0" result="BackgroundImageFix"/>
<feColorMatrix in="SourceAlpha" type="matrix" values="0 0 0 0 0 0 0 0 0 0 0 0 0 0 0 0 0 0 127 0" result="hardAlpha"/>
<feOffset dy="4"/>
<feGaussianBlur stdDeviation="2"/>
<feComposite in2="hardAlpha" operator="out"/>
<feColorMatrix type="matrix" values="0 0 0 0 0 0 0 0 0 0 0 0 0 0 0 0 0 0 0.25 0"/>
<feBlend mode="normal" in2="BackgroundImageFix" result="effect1_dropShadow_96_103"/>
<feBlend mode="normal" in="SourceGraphic" in2="effect1_dropShadow_96_103" result="shape"/>
</filter>
<clipPath id="clip0_96_103">
<rect x="4" width="150" height="168" rx="15" fill="white"/>
</clipPath>
</defs>
</svg>
