<svg width="40" height="35" viewBox="0 0 40 35" fill="none" xmlns="http://www.w3.org/2000/svg">
<path d="M0 11.914V11.4609C0 5.99994 3.94688 1.34213 9.32812 0.445253C12.8203 -0.147716 16.5156 1.01322 19.0625 3.564L20 4.49994L20.8672 3.564C23.4844 1.01322 27.1094 -0.147716 30.6719 0.445253C36.0547 1.34213 40 5.99994 40 11.4609V11.914C40 15.1562 38.6562 18.2577 36.2812 20.4687L22.1641 33.6484C21.5781 34.1952 20.8047 34.4999 20 34.4999C19.1953 34.4999 18.4219 34.1952 17.8359 33.6484L3.71797 20.4687C1.34609 18.2577 2.34375e-05 15.1562 2.34375e-05 11.914H0Z" fill="white" fill-opacity="0.6"/>
</svg>
