<svg width="60" height="52" viewBox="0 0 60 52" fill="none" xmlns="http://www.w3.org/2000/svg">
<path d="M51.0535 0H8.50891C3.80641 0 0 3.31261 0 7.40506V44.4304C0 48.524 3.80508 51.8354 8.50891 51.8354H51.0535C55.7573 51.8354 59.5624 48.524 59.5624 44.4304V7.40506C59.5624 3.31261 55.76 0 51.0535 0ZM51.0535 35.1741C51.0535 37.2185 49.1483 38.8766 46.799 38.8766H12.7634C10.4141 38.8766 8.50891 37.2185 8.50891 35.1741V22.435L26.9227 30.4499C27.8268 30.8352 28.7973 31.0318 29.7812 31.0318C30.765 31.0318 31.7422 30.8365 32.6357 30.4479L51.0535 22.435V35.1741ZM51.0535 18.2928L30.7384 27.1349C30.1402 27.3953 29.4339 27.3953 28.8359 27.1349L8.50891 18.2928V16.6614C8.50891 14.6169 10.4141 12.9589 12.7634 12.9589H46.799C49.1483 12.9589 51.0535 14.6169 51.0535 16.6614V18.2928Z" fill="#8C8493"/>
</svg>
