<svg width="37" height="41" viewBox="0 0 37 41" fill="none" xmlns="http://www.w3.org/2000/svg">
<path d="M24.799 11.7452L34.7781 13.4015C35.6045 13.5343 36.2989 14.1906 36.5628 15.089C36.8267 15.9953 36.6114 16.9796 36.0142 17.6515L28.7781 25.6359L30.4864 37.089C30.6253 38.0265 30.2851 38.9796 29.5906 39.5343C28.9031 40.089 27.9934 40.1593 27.2503 39.714L18.3337 34.3624L9.42396 39.714C8.67396 40.1593 7.76424 40.089 7.07674 39.5343C6.38924 38.9796 6.04201 38.0265 6.18785 37.089L7.89618 25.6359L0.658684 17.6515C0.0607673 16.9796 -0.151733 15.9953 0.110767 15.089C0.372573 14.1906 1.06493 13.5343 1.89757 13.4015L11.8684 11.7452L16.3406 1.40696C16.7087 0.546336 17.4865 0 18.3337 0C19.1878 0 19.9656 0.546336 20.3337 1.40696L24.799 11.7452Z" fill="#8C8493" fill-opacity="0.7"/>
</svg>
