<svg width="50" height="49" viewBox="0 0 50 49" fill="none" xmlns="http://www.w3.org/2000/svg">
<path d="M3.51459 3.82029C0 7.20307 0 12.6483 0 23.5375V25.4625C0 36.3517 0 41.797 3.51459 45.1797C7.02916 48.5625 12.6865 48.5625 24 48.5625H26C37.3135 48.5625 42.9709 48.5625 46.4854 45.1797C50 41.797 50 36.3517 50 25.4625V23.5375C50 12.6483 50 7.20307 46.4854 3.82029C42.9709 0.4375 37.3135 0.4375 26 0.4375H24C12.6865 0.4375 7.02916 0.4375 3.51459 3.82029ZM8.4375 15.0756H14.1459C14.3334 24.2594 18.5416 28.1494 21.875 28.9516V15.0756H27.25V22.9961C30.5416 22.6552 34 19.0459 35.1666 15.0756H40.5416C40.1019 17.1346 39.2254 19.0841 37.9672 20.8024C36.709 22.5206 35.0961 23.9705 33.2291 25.0615C35.3136 26.0575 37.1548 27.4681 38.6308 29.1998C40.1068 30.9317 41.1842 32.9453 41.7916 35.1076H35.875C35.3298 33.2293 34.2203 31.5479 32.6858 30.2744C31.1514 29.0009 29.2604 28.1919 27.25 27.949V35.1076H26.6041C15.2084 35.1076 8.70834 27.5881 8.4375 15.0756Z" fill="#8C8493"/>
</svg>
